<svg width="130" height="45" viewBox="0 0 130 45" fill="none" xmlns="http://www.w3.org/2000/svg">
<path d="M60.4478 33.5114V33.1888H54.4911C51.9056 33.1888 50.6119 34.0901 50.6119 35.8911C50.6119 36.7925 50.9759 37.5027 51.7092 38.0273C52.4425 38.552 53.4065 38.8115 54.6028 38.8115C56.2893 38.8115 57.6839 38.3194 58.792 37.3279C59.8911 36.3328 60.4478 35.06 60.4478 33.5114ZM68.0369 27.6182V44.1603H61.0658V40.9172C58.8947 43.0805 56.0623 44.1603 52.5795 44.1603C49.6588 44.1603 47.3219 43.423 45.5796 41.9447C43.8372 40.4665 42.967 38.5357 42.967 36.1615C42.967 33.7494 43.9147 31.8475 45.8048 30.4576C47.6948 29.0695 50.2516 28.3754 53.4767 28.3754H60.4478V27.1874C60.4478 25.6713 60.0064 24.5103 59.1253 23.699C58.2442 22.8878 56.9596 22.4858 55.2731 22.4858C53.8839 22.4858 52.6335 22.7724 51.5092 23.3493C50.3849 23.9262 49.1831 24.8654 47.9111 26.158L43.976 21.6691C47.1994 17.9915 51.2443 16.1563 56.1163 16.1563C59.7866 16.1563 62.691 17.1586 64.8297 19.1561C66.9684 21.1572 68.0369 23.9767 68.0369 27.6182Z" fill="white"/>
<path d="M75.0638 38.9864L78.889 34.5733C81.2871 36.9818 83.8925 38.1788 86.7033 38.1788C87.7501 38.1788 88.6041 37.9895 89.26 37.6145C89.9158 37.2396 90.2474 36.6897 90.2474 35.9722C90.2474 35.4332 90.0492 35.0114 89.6582 34.7049C89.2672 34.3984 88.5069 34.0126 87.3825 33.5493L84.4006 32.3667C81.7394 31.3265 79.8097 30.1854 78.6079 28.9451C77.4061 27.7048 76.8115 26.1364 76.8115 24.2363C76.8115 21.7593 77.7484 19.8123 79.6223 18.3917C81.4961 16.9712 83.97 16.2645 87.0402 16.2645C91.1627 16.2645 94.496 17.5949 97.0491 20.2504L93.2239 24.723C91.3501 23.0338 89.2672 22.1938 86.9862 22.1938C84.997 22.1938 84.0042 22.8229 84.0042 24.0794C84.0042 24.5806 84.2078 24.9934 84.6222 25.3197C85.0348 25.6424 85.8024 26.0228 86.9267 26.4501L89.6276 27.5263C92.4005 28.6026 94.3951 29.7545 95.6131 30.9732C96.8311 32.1936 97.4365 33.7548 97.4365 35.6567C97.4365 38.3122 96.4058 40.398 94.3446 41.9033C92.3212 43.414 89.7375 44.1621 86.5844 44.1621C81.5988 44.1549 77.7574 42.4351 75.0638 38.9864Z" fill="white"/>
<path d="M130 27.3532V44.1603H122.467V27.2937C122.467 25.6839 121.987 24.3787 121.034 23.3854C120.081 22.3938 118.831 21.8981 117.297 21.8981C115.76 21.8981 114.497 22.3938 113.501 23.3854C112.508 24.3769 112.013 25.6839 112.013 27.2937V44.1603H104.424V0H112.013V19.1399C113.997 17.155 116.548 16.1581 119.656 16.1581C122.802 16.1581 125.315 17.1785 127.189 19.2228C129.063 21.2671 130 23.9803 130 27.3532Z" fill="white"/>
<path d="M21.1132 25.7415L17.9096 22.5308C17.706 22.3271 17.4051 22.273 17.1493 22.3794C16.8934 22.4857 16.7151 22.7435 16.7151 23.0266V25.0745C8.53679 25.0745 5.28098 28.141 3.22695 30.2069C0.899058 32.5577 0.0756462 34.8634 0.0414124 34.9608C-0.124351 35.3953 0.230599 35.9072 0.695458 35.891L8.23229 35.9163C9.47192 32.0674 13.5277 27.9571 16.7151 27.9571V29.4371C16.7006 30.0501 17.4808 30.3674 17.9096 29.9329L21.1132 26.7222C21.3889 26.459 21.3889 26.0155 21.1132 25.7415Z" fill="#03D8FF"/>
<path d="M18.3647 8.13583H17.5936C17.2837 8.14304 16.9792 8.13583 16.6729 8.13583H0.00283813V35.1069L0.00463991 35.1051C0.0100452 35.0546 0.0226577 35.0041 0.0406755 34.9554C0.076711 34.8581 0.898321 32.5524 3.22622 30.2034C4.33972 29.0821 5.81177 27.6669 8.22795 26.6069L8.23155 26.6033V16.369H17.4783C25.4728 16.0355 30.397 24.9988 25.9376 31.6185V31.6203C24.1701 34.2524 21.1215 35.9145 17.9071 35.8965C17.4891 35.8965 17.2458 35.9181 16.6711 35.9181H8.23155V43.1634C8.23155 43.7096 8.67479 44.1513 9.21893 44.1513H16.6711C18.2639 44.1279 19.6728 44.1224 21.1809 43.8376C29.6042 42.3684 36.0041 34.7625 35.9357 26.1291C36.0294 16.4375 27.9754 8.24941 18.3647 8.13583Z" fill="white"/>
<path opacity="0.2" d="M8.24313 26.5961C8.24313 26.5961 8.23232 26.5997 8.22331 26.6051C4.19093 28.2835 0.673862 32.8552 0.0432402 34.914C0.0216188 34.9717 0.01261 35.0294 0.00720463 35.0925C0.00720463 35.0961 0.00360107 35.0961 0.00360107 35.1015V30.892C0.00360107 30.8902 3.12608 27.6038 8.24313 26.5961Z" fill="#000DAC"/>
<path d="M4.29011 35.3051C4.45407 34.8076 4.66128 34.3299 4.8901 33.8593C4.90271 33.8323 4.93695 33.8197 4.96397 33.8341C4.991 33.8467 5.00361 33.881 4.9892 33.908L4.9874 33.9098C4.74236 34.3659 4.51353 34.8328 4.33155 35.3178C4.32795 35.3286 4.31533 35.3358 4.30272 35.3322C4.29371 35.3286 4.28831 35.316 4.29011 35.3051Z" fill="white"/>
<path d="M6.28284 31.5536C6.81797 30.8289 7.42157 30.1528 8.08642 29.5399C8.14949 29.4822 8.24858 29.4858 8.30804 29.5489C8.3657 29.612 8.3621 29.7112 8.29903 29.7707C8.29723 29.7725 8.29543 29.7725 8.29543 29.7743C7.62697 30.3511 7.01437 30.9965 6.46302 31.6924C6.42338 31.7411 6.35311 31.7501 6.30447 31.7104C6.25582 31.6708 6.24681 31.6023 6.28284 31.5536Z" fill="white"/>
<path d="M10.2629 27.912C10.6521 27.6777 11.0575 27.4667 11.4737 27.2829C11.8882 27.0918 12.3206 26.9457 12.7548 26.8105C12.8737 26.7745 12.998 26.8394 13.0341 26.9584C13.0701 27.0773 13.0053 27.2017 12.8881 27.2378C12.4683 27.3694 12.0611 27.5352 11.6557 27.7011C11.2521 27.8724 10.8539 28.0617 10.4684 28.2708C10.3693 28.3249 10.2431 28.287 10.1891 28.1878C10.135 28.0905 10.1693 27.9679 10.2629 27.912Z" fill="white"/>
<path d="M15.4358 26.3617C15.962 26.3581 16.4881 26.3707 17.0088 26.3887C17.0214 26.3887 17.0304 26.3995 17.0304 26.4121C17.0304 26.423 17.0214 26.432 17.0106 26.4338H17.0088C16.4899 26.5059 15.9764 26.569 15.4629 26.6195L15.4503 26.6213C15.3782 26.6285 15.3151 26.5762 15.3079 26.5041C15.3007 26.432 15.353 26.3689 15.425 26.3617C15.4286 26.3617 15.4322 26.3617 15.4358 26.3617Z" fill="white"/>
</svg>
